<svg xmlns="http://www.w3.org/2000/svg" width="22" height="23" fill="none" viewBox="0 0 22 23"><path fill="#fff" d="M4.804 2.695c2.51 1.877 5.208 5.693 6.196 7.743.988-2.046 3.687-5.861 6.196-7.743 1.81-1.358 4.74-2.407 4.74.936 0 .666-.383 5.608-.606 6.411-.782 2.785-3.627 3.498-6.158 3.064 4.422.752 5.547 3.244 3.116 5.736-4.615 4.735-6.63-1.186-7.146-2.702-.073-.211-.112-.336-.142-.336-.03 0-.069.13-.142.336-.515 1.516-2.535 7.437-7.146 2.702-2.427-2.492-1.306-4.984 3.116-5.736-2.531.434-5.376-.28-6.153-3.068-.228-.804-.61-5.745-.61-6.411 0-3.343 2.93-2.294 4.739-.937v.005Z"/></svg>