<svg xmlns="http://www.w3.org/2000/svg" width="18" height="19" fill="none" viewBox="0 0 18 19"><path fill="#fff" d="M16.25.772c.664 0 1.25.586 1.25 1.289v14.961c0 .703-.586 1.25-1.25 1.25H1.21c-.663 0-1.21-.547-1.21-1.25V2.061C0 1.358.547.772 1.21.772h15.04Zm-10.977 15v-8.32H2.695v8.32h2.578ZM3.984 6.28c.82 0 1.485-.664 1.485-1.485 0-.82-.664-1.523-1.485-1.523-.859 0-1.523.703-1.523 1.523S3.125 6.28 3.984 6.28ZM15 15.772v-4.57c0-2.227-.508-3.985-3.125-3.985-1.25 0-2.11.703-2.46 1.367h-.04V7.452h-2.46v8.32h2.577V11.67c0-1.093.195-2.148 1.563-2.148 1.328 0 1.328 1.25 1.328 2.188v4.062H15Z"/></svg>