<svg xmlns="http://www.w3.org/2000/svg" width="193" height="36" fill="none" viewBox="0 0 193 36"><g clip-path="url(#a)"><path fill="#062630" fill-rule="evenodd" d="M3.857 0A3.857 3.857 0 0 0 0 3.857v28.286A3.857 3.857 0 0 0 3.857 36H27a3.857 3.857 0 0 0 3.857-3.857V3.857A3.857 3.857 0 0 0 27 0H3.857ZM2.571 3.857c0-.71.576-1.286 1.286-1.286h1.286V33.43H3.857c-.71 0-1.286-.576-1.286-1.286V3.857Zm16.208 9.71a1.286 1.286 0 1 1 2.3 1.15l-3.858 7.715a1.286 1.286 0 1 1-2.3-1.15l3.858-7.714Zm-4.691.631a1.286 1.286 0 0 1 0 1.818L12.104 18l1.984 1.984a1.286 1.286 0 0 1-1.819 1.818l-2.892-2.893a1.286 1.286 0 0 1 0-1.818l2.892-2.893a1.286 1.286 0 0 1 1.819 0Zm7.824 1.818a1.286 1.286 0 0 1 1.819-1.818l2.892 2.893a1.286 1.286 0 0 1 0 1.818l-2.892 2.893a1.286 1.286 0 0 1-1.819-1.818L23.896 18l-1.984-1.984Z" clip-rule="evenodd"/><path fill="#062630" d="M7.429 12h22v12h-22V12Z"/><path stroke="#FF9A60" stroke-linecap="round" stroke-linejoin="round" stroke-width="1.422" d="m14.683 12.695-2.735-2.747m8.504 8.513-2.798-2.798m-1.593.725v5.844m2.103 2.105a2.105 2.105 0 1 1-4.209.001 2.105 2.105 0 0 1 4.21-.001Zm5.903-4.417a2.104 2.104 0 1 1-4.209.001 2.104 2.104 0 0 1 4.21-.001Zm-5.903-5.636a2.105 2.105 0 1 1-4.209.001 2.105 2.105 0 0 1 4.21-.001Z"/><path fill="#062630" d="M52.385 12.52V24.5h-2.8V12.52h-4.144v-2.205h11.21l-.286 2.206h-3.98Zm7.536 7.375c.082 1.019.383 1.754.902 2.205.52.451 1.152.677 1.898.677.52 0 1.008-.082 1.466-.246.458-.164.91-.393 1.354-.687l1.128 1.548a6.066 6.066 0 0 1-1.815 1.026c-.698.26-1.467.39-2.308.39-1.176 0-2.167-.243-2.974-.729a4.645 4.645 0 0 1-1.816-2.02c-.41-.862-.615-1.853-.615-2.974 0-1.08.198-2.055.595-2.924.403-.868.985-1.555 1.744-2.061.765-.513 1.685-.77 2.759-.77 1.49 0 2.673.486 3.548 1.457.875.971 1.313 2.315 1.313 4.03 0 .398-.017.756-.051 1.078H59.92Zm2.328-4.656c-.657 0-1.197.235-1.62.707-.418.472-.664 1.21-.74 2.216h4.575c-.013-.917-.201-1.631-.564-2.144-.362-.52-.913-.78-1.651-.78Zm11.935 7.394c.479 0 .927-.089 1.344-.266a6.952 6.952 0 0 0 1.22-.677l1.231 1.733a5.997 5.997 0 0 1-1.733.995c-.677.26-1.402.39-2.175.39-1.141 0-2.12-.236-2.933-.708a4.704 4.704 0 0 1-1.856-1.99c-.431-.854-.647-1.846-.647-2.974 0-1.115.22-2.11.657-2.985a5.047 5.047 0 0 1 1.887-2.061c.82-.506 1.798-.76 2.933-.76.78 0 1.484.114 2.113.34a5.516 5.516 0 0 1 1.744.984l-1.2 1.661a5.397 5.397 0 0 0-1.251-.636 3.987 3.987 0 0 0-1.323-.225c-.8 0-1.453.29-1.96.872-.499.574-.748 1.51-.748 2.81 0 1.285.256 2.191.77 2.718.512.52 1.155.78 1.927.78Zm8.346-13.59v5.816a4.468 4.468 0 0 1 1.518-1.149 4.312 4.312 0 0 1 1.774-.38c.999 0 1.747.284 2.246.852.506.56.76 1.35.76 2.37V24.5H86.12v-7.344c0-.656-.103-1.121-.308-1.394-.198-.274-.54-.41-1.026-.41-.437 0-.847.146-1.23.44-.383.287-.725.64-1.026 1.057V24.5h-2.708V9.31l2.708-.266ZM100.216 14.859a4.15 4.15 0 0 1 1.282-1.118 3.298 3.298 0 0 1 1.61-.41c1.416 0 2.441.52 3.077 1.559.636 1.032.954 2.417.954 4.154 0 1.114-.164 2.106-.492 2.974-.329.868-.817 1.552-1.467 2.051-.643.492-1.432.739-2.369.739-1.183 0-2.11-.448-2.78-1.344l-.123 1.036h-2.4V9.3l2.708-.287v5.846Zm1.897 7.928c.691 0 1.231-.294 1.621-.882.39-.588.584-1.532.584-2.83 0-1.375-.177-2.336-.533-2.883-.355-.553-.844-.83-1.467-.83-.451 0-.851.136-1.2.41a4.213 4.213 0 0 0-.902 1.015v4.862c.232.362.506.642.82.84.315.199.674.298 1.077.298Zm11.013-9.456c1.08 0 1.996.236 2.748.708.753.471 1.324 1.138 1.713 2 .397.854.595 1.856.595 3.005 0 1.764-.441 3.165-1.323 4.205-.882 1.039-2.13 1.559-3.744 1.559-1.613 0-2.861-.51-3.743-1.529-.882-1.025-1.323-2.43-1.323-4.215 0-1.135.198-2.133.595-2.995.396-.861.971-1.531 1.723-2.01.759-.486 1.678-.728 2.759-.728Zm0 2.04c-.759 0-1.327.298-1.703.893-.369.595-.554 1.528-.554 2.8 0 1.286.185 2.226.554 2.82.369.589.933.883 1.692.883.759 0 1.324-.294 1.693-.882.369-.595.554-1.542.554-2.841 0-1.265-.185-2.192-.554-2.78-.369-.595-.93-.892-1.682-.892Zm11.104-2.04c1.081 0 1.997.236 2.749.708.752.471 1.323 1.138 1.713 2 .397.854.595 1.856.595 3.005 0 1.764-.441 3.165-1.323 4.205-.882 1.039-2.13 1.559-3.744 1.559-1.614 0-2.861-.51-3.743-1.529-.882-1.025-1.324-2.43-1.324-4.215 0-1.135.199-2.133.595-2.995.397-.861.971-1.531 1.723-2.01.759-.486 1.679-.728 2.759-.728Zm0 2.04c-.759 0-1.326.298-1.702.893-.369.595-.554 1.528-.554 2.8 0 1.286.185 2.226.554 2.82.369.589.933.883 1.692.883.759 0 1.323-.294 1.692-.882.37-.595.554-1.542.554-2.841 0-1.265-.184-2.192-.554-2.78-.369-.595-.929-.892-1.682-.892Zm9.341-6.358V24.5h-2.708V9.3l2.708-.287Zm7.138 4.626-4.03 4.84 4.42 6.021h-3.19l-4.184-5.949 4-4.912h2.984ZM153.975 22.633c.479 0 .926-.089 1.343-.266a6.937 6.937 0 0 0 1.221-.677l1.231 1.733a6.005 6.005 0 0 1-1.734.995c-.677.26-1.401.39-2.174.39-1.142 0-2.12-.236-2.933-.708a4.706 4.706 0 0 1-1.857-1.99c-.43-.854-.646-1.846-.646-2.974 0-1.115.219-2.11.657-2.985a5.04 5.04 0 0 1 1.887-2.061c.82-.506 1.798-.76 2.933-.76.78 0 1.484.114 2.113.34a5.507 5.507 0 0 1 1.743.984l-1.2 1.661a5.384 5.384 0 0 0-1.251-.636 3.988 3.988 0 0 0-1.323-.225c-.8 0-1.453.29-1.959.872-.499.574-.749 1.51-.749 2.81 0 1.285.257 2.191.77 2.718.512.52 1.155.78 1.928.78ZM164.782 9.3v12.041c0 .472.14.807.421 1.005.28.198.653.298 1.118.298.294 0 .577-.031.851-.093.273-.068.533-.15.779-.246l.667 1.846a6.108 6.108 0 0 1-1.251.462c-.486.13-1.05.195-1.693.195-1.182 0-2.078-.339-2.687-1.016-.608-.677-.913-1.59-.913-2.738v-9.836h-3.251V9.3h5.959Zm8.643 4.338v7.529c0 .588.117 1.001.349 1.24.232.24.571.36 1.015.36.424 0 .838-.127 1.241-.38.404-.26.732-.588.985-.984v-7.764h2.708V24.5h-2.359l-.144-1.333c-.39.533-.889.94-1.497 1.22-.609.28-1.238.42-1.887.42-1.047 0-1.83-.293-2.349-.881-.513-.595-.769-1.405-.769-2.431v-7.857h2.707Zm11.105 1.221a4.15 4.15 0 0 1 1.282-1.118 3.298 3.298 0 0 1 1.61-.41c1.416 0 2.441.52 3.077 1.559.636 1.032.954 2.417.954 4.154 0 1.114-.164 2.106-.492 2.974-.328.868-.817 1.552-1.467 2.051-.643.492-1.432.739-2.369.739-1.183 0-2.11-.448-2.78-1.344l-.123 1.036h-2.4V9.3l2.708-.287v5.846Zm1.897 7.928c.691 0 1.231-.294 1.621-.882.39-.588.585-1.532.585-2.83 0-1.375-.178-2.336-.534-2.883-.355-.553-.844-.83-1.466-.83-.452 0-.852.136-1.2.41a4.195 4.195 0 0 0-.903 1.015v4.862c.232.362.506.642.82.84.315.199.674.298 1.077.298Z"/></g><defs><clipPath id="a"><path fill="#fff" d="M0 0h192.857v36H0z"/></clipPath></defs></svg>