<svg xmlns="http://www.w3.org/2000/svg" width="120" height="138" fill="none" viewBox="0 0 120 138"><rect width="72" height="72" x="20.504" fill="#007ACC" rx="36"/><rect width="34" height="34" x="39.504" y="19" fill="#fff" rx="3.4"/><path fill="#007ACC" d="m51.412 38.805-.008.983h3.122v8.872h2.21v-8.872h3.122v-.964c0-.533-.011-.978-.027-.99-.011-.015-1.911-.023-4.215-.019l-4.193.012-.011.978ZM65.465 37.799c.609.152 1.073.422 1.5.864.22.236.548.667.575.77.007.03-1.036.73-1.668 1.123-.023.015-.114-.084-.217-.236-.309-.45-.632-.644-1.127-.678-.728-.05-1.196.331-1.192.967a.88.88 0 0 0 .103.45c.16.33.457.529 1.39.932 1.717.74 2.452 1.227 2.909 1.92.51.773.624 2.006.278 2.924-.381.998-1.325 1.675-2.654 1.9-.412.073-1.386.061-1.828-.019-.964-.171-1.877-.647-2.441-1.272-.22-.243-.651-.88-.625-.925a1.79 1.79 0 0 1 .221-.14l.891-.515.69-.4.144.213c.202.309.644.732.91.873.766.403 1.817.346 2.335-.119a.883.883 0 0 0 .312-.72c0-.277-.034-.4-.179-.609-.187-.266-.567-.49-1.649-.96-1.237-.532-1.77-.864-2.258-1.39a3.164 3.164 0 0 1-.659-1.199c-.091-.338-.114-1.188-.042-1.53.256-1.196 1.158-2.03 2.46-2.278.423-.08 1.405-.049 1.82.054Z"/><rect width="55" height="55" y="83" fill="#161614" rx="27.5"/><path fill="#fff" d="M27.5 94.92c-8.821 0-15.974 7.152-15.974 15.974 0 7.058 4.577 13.046 10.924 15.158.798.148 1.091-.346 1.091-.768 0-.381-.014-1.639-.021-2.974-4.444.966-5.382-1.885-5.382-1.885-.727-1.846-1.774-2.337-1.774-2.337-1.449-.992.11-.971.11-.971 1.604.112 2.448 1.646 2.448 1.646 1.425 2.442 3.737 1.736 4.649 1.328.143-1.033.557-1.737 1.014-2.136-3.548-.404-7.278-1.774-7.278-7.895 0-1.744.624-3.169 1.646-4.288-.166-.402-.713-2.027.155-4.227 0 0 1.341-.429 4.394 1.637a15.347 15.347 0 0 1 3.998-.537c1.358.006 2.725.184 4.002.537 3.049-2.066 4.388-1.637 4.388-1.637.87 2.2.323 3.825.157 4.227 1.024 1.119 1.644 2.544 1.644 4.288 0 6.136-3.737 7.486-7.294 7.882.573.496 1.084 1.468 1.084 2.958 0 2.138-.02 3.858-.02 4.384 0 .425.289.923 1.098.766 6.344-2.114 10.915-8.1 10.915-15.156 0-8.822-7.152-15.974-15.974-15.974Zm-9.991 22.756c-.035.079-.16.103-.274.049-.116-.053-.18-.161-.143-.24.034-.082.16-.105.275-.05.116.052.182.161.142.241Zm.785.701c-.076.071-.225.038-.326-.074-.104-.111-.124-.26-.046-.332.078-.07.223-.037.327.074.105.113.125.261.046.332Zm.54.897c-.098.068-.258.004-.357-.138-.098-.142-.098-.312.002-.38.1-.069.257-.007.357.134.098.144.098.314-.002.384Zm.911 1.039c-.087.096-.274.071-.41-.061-.14-.129-.179-.312-.091-.408.089-.097.276-.07.414.061.138.128.18.312.087.408Zm1.178.351c-.038.125-.218.182-.399.128-.18-.054-.299-.201-.262-.327.037-.126.218-.185.4-.129.18.055.299.2.262.328Zm1.341.148c.005.132-.149.241-.338.244-.191.004-.346-.103-.348-.232 0-.133.15-.241.34-.245.19-.003.346.102.346.233Zm1.318-.05c.022.128-.11.26-.298.296-.186.034-.357-.046-.38-.173-.024-.132.11-.264.296-.298.189-.033.358.044.382.175Z"/><rect width="43" height="43" x="76.56" y="83" fill="#00D8FF" rx="21.5"/><path fill="#fff" d="M107.404 99.927a19.28 19.28 0 0 0-.933-.296c.052-.217.101-.431.144-.642.707-3.457.245-6.241-1.333-7.158-1.513-.88-3.987.037-6.486 2.229-.246.216-.487.439-.722.667a17.955 17.955 0 0 0-.48-.447c-2.62-2.343-5.244-3.33-6.82-2.411-1.512.882-1.96 3.5-1.323 6.775.063.325.134.648.214.968-.372.107-.73.22-1.073.34-3.07 1.079-5.032 2.77-5.032 4.523 0 1.811 2.105 3.628 5.303 4.729.26.089.521.172.784.247a19.22 19.22 0 0 0-.227 1.044c-.607 3.219-.133 5.775 1.374 6.651 1.557.905 4.17-.025 6.715-2.267.206-.182.408-.369.605-.562.254.248.516.488.784.721 2.465 2.137 4.899 3 6.405 2.122 1.555-.908 2.061-3.653 1.404-6.994a15.99 15.99 0 0 0-.173-.781c.183-.055.363-.111.539-.17 3.324-1.11 5.487-2.904 5.487-4.74 0-1.759-2.024-3.461-5.156-4.548Zm-.721 8.103c-.158.053-.321.104-.487.154a29.471 29.471 0 0 0-1.468-3.703 29.431 29.431 0 0 0 1.411-3.648c.297.087.584.178.862.274 2.684.931 4.321 2.308 4.321 3.368 0 1.13-1.768 2.597-4.639 3.555Zm-1.191 2.378c.29 1.477.332 2.813.139 3.857-.172.938-.519 1.564-.949 1.814-.914.533-2.868-.159-4.976-1.987a18.34 18.34 0 0 1-.73-.67 29.515 29.515 0 0 0 2.432-3.11 28.762 28.762 0 0 0 3.927-.611c.059.241.112.477.157.707Zm-12.045 5.579c-.893.318-1.604.327-2.034.077-.915-.531-1.295-2.584-.776-5.337.061-.325.132-.648.212-.97 1.188.265 2.502.456 3.908.57a30.385 30.385 0 0 0 2.489 3.1c-.18.175-.364.346-.552.512-1.126.991-2.253 1.695-3.247 2.048Zm-4.183-7.964c-1.414-.487-2.582-1.12-3.382-1.811-.72-.62-1.083-1.237-1.083-1.737 0-1.064 1.575-2.421 4.2-3.343.32-.112.653-.218.999-.317a30.154 30.154 0 0 0 1.413 3.691 30.576 30.576 0 0 0-1.431 3.743c-.24-.069-.48-.145-.716-.226Zm1.402-9.618c-.545-2.807-.183-4.924.728-5.456.97-.566 3.116.242 5.377 2.265.147.132.292.267.435.404a29.907 29.907 0 0 0-2.47 3.081c-1.364.127-2.67.332-3.87.606-.074-.298-.14-.599-.2-.9Zm12.51 3.112c-.284-.493-.578-.98-.882-1.461.925.118 1.812.274 2.644.466-.25.807-.561 1.651-.928 2.516a44.892 44.892 0 0 0-.834-1.521Zm-5.102-5.006a26.67 26.67 0 0 1 1.707 2.076 36.245 36.245 0 0 0-3.428-.001 27.49 27.49 0 0 1 1.721-2.075Zm-5.134 5.015a36.782 36.782 0 0 0-.818 1.511c-.361-.862-.67-1.71-.922-2.529.828-.186 1.71-.339 2.63-.454-.308.483-.605.974-.89 1.472Zm.916 7.46a26.085 26.085 0 0 1-2.673-.433c.256-.833.572-1.699.94-2.58a36.244 36.244 0 0 0 1.733 3.013Zm4.253 3.542a27.78 27.78 0 0 1-1.745-2.104c.555.022 1.121.033 1.696.033.591 0 1.176-.013 1.751-.039a26.632 26.632 0 0 1-1.702 2.11Zm5.913-6.6c.387.891.714 1.752.973 2.571-.84.193-1.748.349-2.705.465a40.556 40.556 0 0 0 1.732-3.036Zm-1.915.925a40.922 40.922 0 0 1-1.391 2.262c-.884.063-1.77.094-2.656.094-.902 0-1.78-.028-2.625-.084a35.117 35.117 0 0 1-2.655-4.62c.382-.8.793-1.586 1.234-2.356v.001c.44-.77.909-1.523 1.406-2.256a34.618 34.618 0 0 1 5.286 0 40.774 40.774 0 0 1 2.647 4.592 37.258 37.258 0 0 1-1.246 2.367Zm2.556-13.94c.971.564 1.349 2.84.739 5.824-.039.19-.083.384-.131.581a29.424 29.424 0 0 0-3.877-.617 29.29 29.29 0 0 0-2.452-3.083c.218-.211.44-.417.667-.617 2.141-1.877 4.142-2.619 5.054-2.089Zm-6.603 8.953a2.6 2.6 0 0 1 2.59 2.609 2.6 2.6 0 0 1-2.59 2.61 2.6 2.6 0 0 1-2.59-2.61 2.6 2.6 0 0 1 2.59-2.609Z"/></svg>